<?xml version="1.0" encoding="iso-8859-1"?>
<!-- Generator: Adobe Illustrator 19.0.0, SVG Export Plug-In . SVG Version: 6.00 Build 0)  -->
<svg version="1.1" id="Layer_1" xmlns="http://www.w3.org/2000/svg" xmlns:xlink="http://www.w3.org/1999/xlink" x="0px" y="0px"
	 viewBox="0 0 512 512" style="enable-background:new 0 0 512 512;" xml:space="preserve">
<circle style="fill:#FED159;" cx="256.969" cy="256.102" r="247.433"/>
<path style="fill:#F6C454;" d="M256.972,59.603c-6.631,0-13.184,0.333-19.646,0.975c99.298,9.858,176.85,93.631,176.85,195.522
	s-77.553,185.663-176.85,195.521c6.462,0.642,13.015,0.975,19.646,0.975c108.522,0,196.496-87.974,196.496-196.496
	C453.469,147.579,365.494,59.603,256.972,59.603z"/>
<path d="M113.298,120.65c-3.57-3.103-8.978-2.726-12.084,0.842C68.793,158.768,50.939,206.539,50.939,256
	c0,113.072,91.991,205.061,205.062,205.061s205.06-91.99,205.06-205.061S369.072,50.939,256.001,50.939
	c-44.962,0-87.645,14.28-123.437,41.298c-3.776,2.851-4.526,8.221-1.676,11.996c2.851,3.776,8.221,4.527,11.997,1.675
	c32.795-24.755,71.909-37.84,113.116-37.84c103.625,0,187.931,84.305,187.931,187.931S359.626,443.93,256.001,443.93
	S68.069,359.625,68.069,255.999c0-45.331,16.361-89.107,46.071-123.268C117.243,129.163,116.867,123.754,113.298,120.65z"/>
<path d="M509.12,217.472c-0.706-4.678-5.084-7.891-9.747-7.191c-4.678,0.706-7.897,5.069-7.191,9.747
	c1.785,11.823,2.688,23.926,2.688,35.972c0,131.713-107.156,238.87-238.869,238.87S17.131,387.713,17.131,256
	S124.288,17.131,256.001,17.131c52.132,0,101.664,16.492,143.237,47.692c40.218,30.183,70.453,73.13,85.139,120.931
	c1.389,4.521,6.183,7.058,10.702,5.672c4.522-1.389,7.062-6.182,5.672-10.703c-15.74-51.235-48.139-97.262-91.23-129.6
	c-44.564-33.446-97.65-51.123-153.52-51.123c-68.38,0-132.668,26.629-181.02,74.981C26.629,123.333,0,187.621,0,256
	s26.629,132.667,74.98,181.019c48.353,48.351,112.64,74.98,181.02,74.98c68.379,0,132.667-26.629,181.019-74.98
	C485.371,388.667,512,324.379,512,256C512,243.102,511.032,230.139,509.12,217.472z"/>
<path d="M200.329,314.667c-4.731,0-8.565,3.835-8.565,8.565v18.993h-11.99c-4.731,0-8.565,3.835-8.565,8.565
	c0,4.73,3.834,8.565,8.565,8.565h51.389v24.539c0,4.73,3.834,8.565,8.565,8.565c4.731,0,8.565-3.835,8.565-8.565v-24.539h18.841
	v24.539c0,4.73,3.834,8.565,8.565,8.565c4.731,0,8.565-3.835,8.565-8.565v-24.539h30.987c15.972,0,28.967-12.994,28.967-28.967
	v-61.975c0-14.479-10.677-26.51-24.57-28.634c1.722-3.704,2.689-7.825,2.689-12.17v-48.498c0-15.972-12.994-28.968-28.967-28.968
	h-9.107v-22.04c0-4.73-3.834-8.565-8.565-8.565c-4.731,0-8.565,3.835-8.565,8.565v22.04h-18.841v-22.04
	c0-4.73-3.834-8.565-8.565-8.565c-4.731,0-8.565,3.835-8.565,8.565v22.04h-51.389c-4.731,0-8.565,3.835-8.565,8.565
	s3.834,8.565,8.565,8.565h11.99v80.736v42.672c0,4.73,3.834,8.565,8.565,8.565c4.731,0,8.565-3.835,8.565-8.565v-34.107h84.477
	h21.88c6.527,0,11.836,5.309,11.836,11.837v61.975c0,6.527-5.309,11.836-11.836,11.836H208.894v-18.993
	C208.894,318.502,205.06,314.667,200.329,314.667z M208.894,239.447v-72.171h84.477c6.527,0,11.836,5.309,11.836,11.837v48.498
	c0,6.527-5.309,11.836-11.836,11.836L208.894,239.447L208.894,239.447z"/>
<g>
</g>
<g>
</g>
<g>
</g>
<g>
</g>
<g>
</g>
<g>
</g>
<g>
</g>
<g>
</g>
<g>
</g>
<g>
</g>
<g>
</g>
<g>
</g>
<g>
</g>
<g>
</g>
<g>
</g>
</svg>
